<?xml version="1.0" encoding="UTF-8" standalone="no"?>
<!DOCTYPE svg PUBLIC "-//W3C//DTD SVG 1.1//EN"
 "http://www.w3.org/Graphics/SVG/1.1/DTD/svg11.dtd">
<!-- Generated by graphviz version 2.38.0 (20140413.2041)
 -->
<!-- Title: %3 Pages: 1 -->
<svg width="562pt" height="404pt"
 viewBox="0.00 0.00 562.28 404.00" xmlns="http://www.w3.org/2000/svg" xmlns:xlink="http://www.w3.org/1999/xlink">
<g id="graph0" class="graph" transform="scale(1 1) rotate(0) translate(4 400)">
<title>%3</title>
<polygon fill="white" stroke="none" points="-4,4 -4,-400 558.283,-400 558.283,4 -4,4"/>
<!-- Background -->
<g id="node1" class="node"><title>Background</title>
<polygon fill="none" stroke="black" points="226.493,-360.049 230.087,-360.148 233.644,-360.295 237.149,-360.491 240.589,-360.735 243.949,-361.027 247.216,-361.364 250.377,-361.748 253.42,-362.176 256.335,-362.647 259.11,-363.161 261.736,-363.715 264.204,-364.308 266.506,-364.939 268.636,-365.605 270.588,-366.306 272.356,-367.039 273.938,-367.801 275.329,-368.592 276.529,-369.408 277.537,-370.248 278.353,-371.109 278.977,-371.989 279.413,-372.886 279.662,-373.797 279.73,-374.719 279.619,-375.65 279.335,-376.587 278.884,-377.529 278.272,-378.471 277.506,-379.413 276.592,-380.35 275.539,-381.281 274.353,-382.203 273.044,-383.114 271.618,-384.011 270.084,-384.891 268.449,-385.752 266.722,-386.592 264.91,-387.408 263.02,-388.199 261.061,-388.961 259.038,-389.694 256.958,-390.395 254.828,-391.061 252.654,-391.692 250.44,-392.285 248.193,-392.839 245.915,-393.353 243.613,-393.824 241.289,-394.252 238.947,-394.636 236.589,-394.973 234.22,-395.265 231.84,-395.509 229.453,-395.705 227.06,-395.852 224.663,-395.951 222.264,-396 219.864,-396 217.465,-395.951 215.068,-395.852 212.675,-395.705 210.287,-395.509 207.908,-395.265 205.538,-394.973 203.181,-394.636 200.839,-394.252 198.515,-393.824 196.212,-393.353 193.935,-392.839 191.687,-392.285 189.474,-391.692 187.299,-391.061 185.17,-390.395 183.09,-389.694 181.067,-388.961 179.108,-388.199 177.218,-387.408 175.406,-386.592 173.679,-385.752 172.044,-384.891 170.51,-384.011 169.084,-383.114 167.775,-382.203 166.589,-381.281 165.536,-380.35 164.622,-379.413 163.856,-378.471 163.244,-377.529 162.793,-376.587 162.509,-375.65 162.398,-374.719 162.466,-373.797 162.715,-372.886 163.151,-371.989 163.775,-371.109 164.591,-370.248 165.599,-369.408 166.799,-368.592 168.19,-367.801 169.772,-367.039 171.54,-366.306 173.492,-365.605 175.621,-364.939 177.924,-364.308 180.392,-363.715 183.018,-363.161 185.793,-362.647 188.708,-362.176 191.751,-361.748 194.912,-361.364 198.179,-361.027 201.539,-360.735 204.979,-360.491 208.484,-360.295 212.041,-360.148 215.635,-360.049 219.252,-360 222.876,-360 226.493,-360.049"/>
<text text-anchor="middle" x="221.064" y="-374.3" font-family="Times New Roman,serif" font-size="14.00">Background</text>
</g>
<!-- Simple API -->
<g id="node2" class="node"><title>Simple API</title>
<polygon fill="none" stroke="black" points="61.2578,-288.049 64.6966,-288.148 68.0998,-288.295 71.4536,-288.491 74.7443,-288.735 77.9588,-289.027 81.0844,-289.364 84.1088,-289.748 87.0207,-290.176 89.8092,-290.647 92.4643,-291.161 94.9767,-291.715 97.338,-292.308 99.5408,-292.939 101.579,-293.605 103.446,-294.306 105.138,-295.039 106.65,-295.801 107.982,-296.592 109.13,-297.408 110.094,-298.248 110.874,-299.109 111.472,-299.989 111.889,-300.886 112.128,-301.797 112.192,-302.719 112.086,-303.65 111.814,-304.587 111.383,-305.529 110.797,-306.471 110.064,-307.413 109.19,-308.35 108.182,-309.281 107.048,-310.203 105.795,-311.114 104.431,-312.011 102.963,-312.891 101.399,-313.752 99.7468,-314.592 98.0131,-315.408 96.2054,-316.199 94.3306,-316.961 92.3953,-317.694 90.4057,-318.395 88.368,-319.061 86.2876,-319.692 84.1697,-320.285 82.0192,-320.839 79.8405,-321.353 77.6375,-321.824 75.414,-322.252 73.1731,-322.636 70.9179,-322.973 68.6508,-323.265 66.3743,-323.509 64.0904,-323.705 61.8009,-323.852 59.5076,-323.951 57.2121,-324 54.9158,-324 52.6203,-323.951 50.327,-323.852 48.0375,-323.705 45.7536,-323.509 43.4771,-323.265 41.21,-322.973 38.9548,-322.636 36.7139,-322.252 34.4904,-321.824 32.2874,-321.353 30.1087,-320.839 27.9582,-320.285 25.8403,-319.692 23.7599,-319.061 21.7222,-318.395 19.7326,-317.694 17.7973,-316.961 15.9225,-316.199 14.1148,-315.408 12.3811,-314.592 10.7286,-313.752 9.16465,-312.891 7.69676,-312.011 6.33251,-311.114 5.07955,-310.203 3.94546,-309.281 2.93776,-308.35 2.06378,-307.413 1.33062,-306.471 0.745075,-305.529 0.313561,-304.587 0.0420447,-303.65 -0.0640251,-302.719 0.000217439,-301.797 0.238991,-300.886 0.655807,-299.989 1.25341,-299.109 2.03375,-298.248 2.99789,-297.408 4.14603,-296.592 5.47742,-295.801 6.99037,-295.039 8.68221,-294.306 10.5493,-293.605 12.5871,-292.939 14.7899,-292.308 17.1512,-291.715 19.6636,-291.161 22.3187,-290.647 25.1072,-290.176 28.0191,-289.748 31.0435,-289.364 34.1691,-289.027 37.3836,-288.735 40.6743,-288.491 44.0281,-288.295 47.4313,-288.148 50.8701,-288.049 54.3303,-288 57.7976,-288 61.2578,-288.049"/>
<text text-anchor="middle" x="56.064" y="-302.3" font-family="Times New Roman,serif" font-size="14.00">Simple API</text>
</g>
<!-- Background&#45;&gt;Simple API -->
<g id="edge1" class="edge"><title>Background&#45;&gt;Simple API</title>
<path fill="none" stroke="black" d="M186.475,-362.326C159.932,-351.065 123.263,-335.509 95.567,-323.759"/>
<polygon fill="black" stroke="black" points="96.7488,-320.458 86.1761,-319.775 94.015,-326.902 96.7488,-320.458"/>
</g>
<!-- UI Style (Structures) -->
<g id="node4" class="node"><title>UI Style (Structures)</title>
<polygon fill="none" stroke="black" points="229.506,-288.049 235.095,-288.148 240.626,-288.295 246.077,-288.491 251.426,-288.735 256.651,-289.027 261.731,-289.364 266.646,-289.748 271.379,-290.176 275.912,-290.647 280.227,-291.161 284.31,-291.715 288.148,-292.308 291.729,-292.939 295.041,-293.605 298.075,-294.306 300.825,-295.039 303.284,-295.801 305.448,-296.592 307.314,-297.408 308.882,-298.248 310.15,-299.109 311.121,-299.989 311.799,-300.886 312.187,-301.797 312.291,-302.719 312.119,-303.65 311.677,-304.587 310.976,-305.529 310.024,-306.471 308.833,-307.413 307.412,-308.35 305.774,-309.281 303.931,-310.203 301.895,-311.114 299.677,-312.011 297.291,-312.891 294.749,-313.752 292.064,-314.592 289.246,-315.408 286.308,-316.199 283.26,-316.961 280.115,-317.694 276.881,-318.395 273.569,-319.061 270.188,-319.692 266.745,-320.285 263.25,-320.839 259.709,-321.353 256.128,-321.824 252.514,-322.252 248.872,-322.636 245.207,-322.973 241.522,-323.265 237.822,-323.509 234.11,-323.705 230.388,-323.852 226.661,-323.951 222.93,-324 219.198,-324 215.467,-323.951 211.739,-323.852 208.018,-323.705 204.306,-323.509 200.606,-323.265 196.921,-322.973 193.256,-322.636 189.614,-322.252 185.999,-321.824 182.419,-321.353 178.878,-320.839 175.382,-320.285 171.94,-319.692 168.559,-319.061 165.247,-318.395 162.013,-317.694 158.868,-316.961 155.82,-316.199 152.882,-315.408 150.064,-314.592 147.378,-313.752 144.837,-312.891 142.451,-312.011 140.233,-311.114 138.197,-310.203 136.354,-309.281 134.716,-308.35 133.295,-307.413 132.104,-306.471 131.152,-305.529 130.451,-304.587 130.009,-303.65 129.837,-302.719 129.941,-301.797 130.329,-300.886 131.007,-299.989 131.978,-299.109 133.246,-298.248 134.813,-297.408 136.68,-296.592 138.844,-295.801 141.303,-295.039 144.052,-294.306 147.087,-293.605 150.399,-292.939 153.979,-292.308 157.817,-291.715 161.901,-291.161 166.216,-290.647 170.749,-290.176 175.481,-289.748 180.397,-289.364 185.477,-289.027 190.702,-288.735 196.05,-288.491 201.502,-288.295 207.033,-288.148 212.622,-288.049 218.246,-288 223.882,-288 229.506,-288.049"/>
<text text-anchor="middle" x="221.064" y="-302.3" font-family="Times New Roman,serif" font-size="14.00">UI Style (Structures)</text>
</g>
<!-- Background&#45;&gt;UI Style (Structures) -->
<g id="edge3" class="edge"><title>Background&#45;&gt;UI Style (Structures)</title>
<path fill="none" stroke="black" d="M221.064,-359.697C221.064,-351.983 221.064,-342.712 221.064,-334.112"/>
<polygon fill="black" stroke="black" points="224.564,-334.104 221.064,-324.104 217.564,-334.104 224.564,-334.104"/>
</g>
<!-- Content -->
<g id="node3" class="node"><title>Content</title>
<polygon fill="none" stroke="black" points="107.991,-216.049 110.592,-216.148 113.165,-216.295 115.701,-216.491 118.19,-216.735 120.621,-217.027 122.984,-217.364 125.271,-217.748 127.473,-218.176 129.582,-218.647 131.589,-219.161 133.489,-219.715 135.275,-220.308 136.941,-220.939 138.481,-221.605 139.893,-222.306 141.173,-223.039 142.317,-223.801 143.324,-224.592 144.192,-225.408 144.921,-226.248 145.511,-227.109 145.963,-227.989 146.278,-228.886 146.459,-229.797 146.507,-230.719 146.427,-231.65 146.222,-232.587 145.895,-233.529 145.453,-234.471 144.898,-235.413 144.237,-236.35 143.475,-237.281 142.618,-238.203 141.67,-239.114 140.639,-240.011 139.529,-240.891 138.346,-241.752 137.096,-242.592 135.785,-243.408 134.418,-244.199 133.001,-244.961 131.537,-245.694 130.033,-246.395 128.492,-247.061 126.919,-247.692 125.317,-248.285 123.691,-248.839 122.043,-249.353 120.378,-249.824 118.696,-250.252 117.002,-250.636 115.296,-250.973 113.582,-251.265 111.86,-251.509 110.133,-251.705 108.402,-251.852 106.668,-251.951 104.932,-252 103.196,-252 101.46,-251.951 99.7258,-251.852 97.9945,-251.705 96.2674,-251.509 94.546,-251.265 92.8316,-250.973 91.1262,-250.636 89.4317,-250.252 87.7503,-249.824 86.0845,-249.353 84.4369,-248.839 82.8108,-248.285 81.2093,-247.692 79.6361,-247.061 78.0952,-246.395 76.5907,-245.694 75.1273,-244.961 73.7096,-244.199 72.3426,-243.408 71.0316,-242.592 69.782,-241.752 68.5994,-240.891 67.4894,-240.011 66.4578,-239.114 65.5103,-238.203 64.6527,-237.281 63.8907,-236.35 63.2298,-235.413 62.6754,-234.471 62.2326,-233.529 61.9063,-232.587 61.701,-231.65 61.6208,-230.719 61.6694,-229.797 61.8499,-228.886 62.1651,-227.989 62.617,-227.109 63.2071,-226.248 63.9362,-225.408 64.8044,-224.592 65.8111,-223.801 66.9552,-223.039 68.2346,-222.306 69.6464,-221.605 71.1874,-220.939 72.8531,-220.308 74.6387,-219.715 76.5385,-219.161 78.5463,-218.647 80.6549,-218.176 82.8568,-217.748 85.1439,-217.364 87.5074,-217.027 89.9381,-216.735 92.4265,-216.491 94.9626,-216.295 97.5361,-216.148 100.136,-216.049 102.753,-216 105.375,-216 107.991,-216.049"/>
<text text-anchor="middle" x="104.064" y="-230.3" font-family="Times New Roman,serif" font-size="14.00">Content</text>
</g>
<!-- Simple API&#45;&gt;Content -->
<g id="edge2" class="edge"><title>Simple API&#45;&gt;Content</title>
<path fill="none" stroke="black" d="M67.6834,-288.055C73.5464,-279.505 80.7668,-268.975 87.2255,-259.556"/>
<polygon fill="black" stroke="black" points="90.1132,-261.534 92.882,-251.307 84.3401,-257.575 90.1132,-261.534"/>
</g>
<!-- UI Update -->
<g id="node5" class="node"><title>UI Update</title>
<polygon fill="none" stroke="black" points="344.859,-144.049 348.034,-144.148 351.177,-144.295 354.273,-144.491 357.311,-144.735 360.279,-145.027 363.165,-145.364 365.957,-145.748 368.646,-146.176 371.221,-146.647 373.672,-147.161 375.992,-147.715 378.172,-148.308 380.206,-148.939 382.087,-149.605 383.811,-150.306 385.373,-151.039 386.77,-151.801 387.999,-152.592 389.059,-153.408 389.949,-154.248 390.67,-155.109 391.222,-155.989 391.606,-156.886 391.827,-157.797 391.886,-158.719 391.788,-159.65 391.538,-160.587 391.139,-161.529 390.599,-162.471 389.922,-163.413 389.115,-164.35 388.184,-165.281 387.137,-166.203 385.98,-167.114 384.721,-168.011 383.366,-168.891 381.922,-169.752 380.396,-170.592 378.795,-171.408 377.126,-172.199 375.395,-172.961 373.608,-173.694 371.771,-174.395 369.89,-175.061 367.969,-175.692 366.014,-176.285 364.028,-176.839 362.017,-177.353 359.983,-177.824 357.93,-178.252 355.861,-178.636 353.778,-178.973 351.685,-179.265 349.583,-179.509 347.475,-179.705 345.361,-179.852 343.243,-179.951 341.124,-180 339.004,-180 336.884,-179.951 334.767,-179.852 332.653,-179.705 330.545,-179.509 328.443,-179.265 326.35,-178.973 324.267,-178.636 322.198,-178.252 320.145,-177.824 318.111,-177.353 316.1,-176.839 314.114,-176.285 312.159,-175.692 310.238,-175.061 308.357,-174.395 306.52,-173.694 304.733,-172.961 303.002,-172.199 301.333,-171.408 299.732,-170.592 298.206,-169.752 296.762,-168.891 295.407,-168.011 294.148,-167.114 292.991,-166.203 291.944,-165.281 291.013,-164.35 290.206,-163.413 289.529,-162.471 288.989,-161.529 288.59,-160.587 288.34,-159.65 288.242,-158.719 288.301,-157.797 288.521,-156.886 288.906,-155.989 289.458,-155.109 290.179,-154.248 291.069,-153.408 292.129,-152.592 293.358,-151.801 294.755,-151.039 296.317,-150.306 298.041,-149.605 299.922,-148.939 301.956,-148.308 304.136,-147.715 306.456,-147.161 308.907,-146.647 311.482,-146.176 314.17,-145.748 316.963,-145.364 319.849,-145.027 322.817,-144.735 325.855,-144.491 328.951,-144.295 332.094,-144.148 335.268,-144.049 338.463,-144 341.665,-144 344.859,-144.049"/>
<text text-anchor="middle" x="340.064" y="-158.3" font-family="Times New Roman,serif" font-size="14.00">UI Update</text>
</g>
<!-- Content&#45;&gt;UI Update -->
<g id="edge4" class="edge"><title>Content&#45;&gt;UI Update</title>
<path fill="none" stroke="blue" d="M140.164,-222.292C181.819,-209.937 250.343,-189.612 295.339,-176.266"/>
<polygon fill="blue" stroke="blue" points="296.531,-179.563 305.123,-173.364 294.54,-172.852 296.531,-179.563"/>
</g>
<!-- UI Style (Structures)&#45;&gt;UI Update -->
<g id="edge5" class="edge"><title>UI Style (Structures)&#45;&gt;UI Update</title>
<path fill="none" stroke="blue" d="M235.418,-287.871C256.461,-262.762 295.778,-215.845 319.77,-187.217"/>
<polygon fill="blue" stroke="blue" points="322.654,-189.225 326.394,-179.312 317.288,-184.728 322.654,-189.225"/>
</g>
<!-- UI Update&#45;&gt;Background -->
<g id="edge8" class="edge"><title>UI Update&#45;&gt;Background</title>
<path fill="none" stroke="red" d="M342.886,-180.289C347.065,-211.855 351.438,-279.646 321.064,-324 309.766,-340.497 291.65,-352.254 273.92,-360.431"/>
<polygon fill="red" stroke="red" points="272.525,-357.221 264.722,-364.388 275.291,-363.652 272.525,-357.221"/>
</g>
<!-- Windows Handlers -->
<g id="node6" class="node"><title>Windows Handlers</title>
<polygon fill="none" stroke="black" points="347.99,-72.0493 353.238,-72.1479 358.431,-72.2953 363.549,-72.4913 368.571,-72.7353 373.476,-73.0266 378.246,-73.3645 382.861,-73.7479 387.305,-74.1759 391.56,-74.6472 395.612,-75.1606 399.446,-75.7147 403.049,-76.308 406.411,-76.9388 409.521,-77.6054 412.37,-78.3059 414.952,-79.0385 417.26,-79.8012 419.292,-80.5918 421.044,-81.4082 422.516,-82.2481 423.706,-83.1093 424.618,-83.9894 425.254,-84.886 425.619,-85.7965 425.717,-86.7186 425.555,-87.6497 425.141,-88.5873 424.482,-89.5287 423.589,-90.4713 422.47,-91.4127 421.136,-92.3503 419.598,-93.2814 417.868,-94.2035 415.956,-95.114 413.874,-96.0106 411.634,-96.8907 409.247,-97.7519 406.725,-98.5918 404.08,-99.4082 401.321,-100.199 398.46,-100.961 395.507,-101.694 392.471,-102.395 389.361,-103.061 386.186,-103.692 382.954,-104.285 379.672,-104.839 376.348,-105.353 372.986,-105.824 369.593,-106.252 366.173,-106.636 362.731,-106.973 359.272,-107.265 355.798,-107.509 352.312,-107.705 348.819,-107.852 345.319,-107.951 341.816,-108 338.312,-108 334.809,-107.951 331.309,-107.852 327.815,-107.705 324.33,-107.509 320.856,-107.265 317.396,-106.973 313.955,-106.636 310.535,-106.252 307.142,-105.824 303.78,-105.353 300.455,-104.839 297.174,-104.285 293.942,-103.692 290.767,-103.061 287.657,-102.395 284.621,-101.694 281.668,-100.961 278.807,-100.199 276.048,-99.4082 273.403,-98.5918 270.881,-97.7519 268.494,-96.8907 266.254,-96.0106 264.172,-95.114 262.26,-94.2035 260.53,-93.2814 258.992,-92.3503 257.658,-91.4127 256.539,-90.4713 255.646,-89.5287 254.987,-88.5873 254.573,-87.6497 254.411,-86.7186 254.509,-85.7965 254.873,-84.886 255.509,-83.9894 256.421,-83.1093 257.612,-82.2481 259.084,-81.4082 260.836,-80.5918 262.867,-79.8012 265.176,-79.0385 267.758,-78.3059 270.607,-77.6054 273.717,-76.9388 277.079,-76.308 280.682,-75.7147 284.516,-75.1606 288.568,-74.6472 292.823,-74.1759 297.267,-73.7479 301.882,-73.3645 306.652,-73.0266 311.557,-72.7353 316.579,-72.4913 321.697,-72.2953 326.89,-72.1479 332.138,-72.0493 337.418,-72 342.71,-72 347.99,-72.0493"/>
<text text-anchor="middle" x="340.064" y="-86.3" font-family="Times New Roman,serif" font-size="14.00">Windows Handlers</text>
</g>
<!-- UI Update&#45;&gt;Windows Handlers -->
<g id="edge6" class="edge"><title>UI Update&#45;&gt;Windows Handlers</title>
<path fill="none" stroke="black" d="M340.064,-143.697C340.064,-135.983 340.064,-126.712 340.064,-118.112"/>
<polygon fill="black" stroke="black" points="343.564,-118.104 340.064,-108.104 336.564,-118.104 343.564,-118.104"/>
</g>
<!-- System -->
<g id="node8" class="node"><title>System</title>
<polygon fill="none" stroke="black" points="343.792,-0.0493367 346.261,-0.147875 348.704,-0.295345 351.111,-0.491342 353.473,-0.735329 355.78,-1.02664 358.024,-1.36447 360.195,-1.7479 362.285,-2.17587 364.287,-2.64722 366.193,-3.16064 367.996,-3.71474 369.691,-4.308 371.272,-4.93879 372.735,-5.60537 374.075,-6.30593 375.29,-7.03854 376.376,-7.80119 377.332,-8.5918 378.156,-9.4082 378.848,-10.2481 379.408,-11.1093 379.837,-11.9894 380.136,-12.886 380.307,-13.7965 380.354,-14.7186 380.277,-15.6497 380.083,-16.5873 379.773,-17.5287 379.352,-18.4713 378.826,-19.4127 378.199,-20.3503 377.476,-21.2814 376.661,-22.2035 375.762,-23.114 374.783,-24.0106 373.729,-24.8907 372.606,-25.7519 371.42,-26.5918 370.176,-27.4082 368.878,-28.1988 367.532,-28.9615 366.143,-29.6941 364.715,-30.3946 363.252,-31.0612 361.759,-31.692 360.239,-32.2853 358.695,-32.8394 357.131,-33.3528 355.55,-33.8241 353.954,-34.2521 352.345,-34.6355 350.726,-34.9734 349.099,-35.2647 347.465,-35.5087 345.825,-35.7047 344.182,-35.8521 342.536,-35.9507 340.888,-36 339.24,-36 337.592,-35.9507 335.946,-35.8521 334.302,-35.7047 332.663,-35.5087 331.029,-35.2647 329.402,-34.9734 327.783,-34.6355 326.174,-34.2521 324.578,-33.8241 322.997,-33.3528 321.433,-32.8394 319.889,-32.2853 318.369,-31.692 316.876,-31.0612 315.413,-30.3946 313.985,-29.6941 312.595,-28.9615 311.25,-28.1988 309.952,-27.4082 308.708,-26.5918 307.521,-25.7519 306.399,-24.8907 305.345,-24.0106 304.366,-23.114 303.466,-22.2035 302.652,-21.2814 301.929,-20.3503 301.302,-19.4127 300.775,-18.4713 300.355,-17.5287 300.045,-16.5873 299.85,-15.6497 299.774,-14.7186 299.82,-13.7965 299.992,-12.886 300.291,-11.9894 300.72,-11.1093 301.28,-10.2481 301.972,-9.4082 302.796,-8.5918 303.752,-7.80119 304.838,-7.03854 306.053,-6.30593 307.393,-5.60537 308.855,-4.93879 310.437,-4.308 312.132,-3.71474 313.935,-3.16064 315.841,-2.64722 317.843,-2.17587 319.933,-1.7479 322.104,-1.36447 324.347,-1.02664 326.655,-0.735329 329.017,-0.491342 331.424,-0.295345 333.867,-0.147875 336.336,-0.0493367 338.819,-1.77636e-013 341.308,-1.84741e-013 343.792,-0.0493367"/>
<text text-anchor="middle" x="340.064" y="-14.3" font-family="Times New Roman,serif" font-size="14.00">System</text>
</g>
<!-- Windows Handlers&#45;&gt;System -->
<g id="edge9" class="edge"><title>Windows Handlers&#45;&gt;System</title>
<path fill="none" stroke="black" d="M340.064,-71.6966C340.064,-63.9827 340.064,-54.7125 340.064,-46.1124"/>
<polygon fill="black" stroke="black" points="343.564,-46.1043 340.064,-36.1043 336.564,-46.1044 343.564,-46.1043"/>
</g>
<!-- Event -->
<g id="node7" class="node"><title>Event</title>
<polygon fill="none" stroke="black" points="404.159,-216.049 406.208,-216.148 408.236,-216.295 410.235,-216.491 412.196,-216.735 414.111,-217.027 415.974,-217.364 417.776,-217.748 419.512,-218.176 421.173,-218.647 422.756,-219.161 424.253,-219.715 425.66,-220.308 426.973,-220.939 428.187,-221.605 429.3,-222.306 430.308,-223.039 431.209,-223.801 432.003,-224.592 432.687,-225.408 433.262,-226.248 433.727,-227.109 434.083,-227.989 434.331,-228.886 434.473,-229.797 434.512,-230.719 434.448,-231.65 434.287,-232.587 434.029,-233.529 433.681,-234.471 433.244,-235.413 432.723,-236.35 432.122,-237.281 431.446,-238.203 430.7,-239.114 429.887,-240.011 429.012,-240.891 428.08,-241.752 427.095,-242.592 426.062,-243.408 424.985,-244.199 423.868,-244.961 422.714,-245.694 421.529,-246.395 420.315,-247.061 419.075,-247.692 417.813,-248.285 416.531,-248.839 415.233,-249.353 413.92,-249.824 412.595,-250.252 411.26,-250.636 409.916,-250.973 408.565,-251.265 407.208,-251.509 405.847,-251.705 404.483,-251.852 403.116,-251.951 401.748,-252 400.38,-252 399.012,-251.951 397.645,-251.852 396.281,-251.705 394.92,-251.509 393.563,-251.265 392.212,-250.973 390.868,-250.636 389.533,-250.252 388.208,-249.824 386.895,-249.353 385.597,-248.839 384.315,-248.285 383.053,-247.692 381.813,-247.061 380.599,-246.395 379.413,-245.694 378.26,-244.961 377.143,-244.199 376.066,-243.408 375.033,-242.592 374.048,-241.752 373.116,-240.891 372.241,-240.011 371.428,-239.114 370.681,-238.203 370.006,-237.281 369.405,-236.35 368.884,-235.413 368.447,-234.471 368.098,-233.529 367.841,-232.587 367.679,-231.65 367.616,-230.719 367.655,-229.797 367.797,-228.886 368.045,-227.989 368.401,-227.109 368.866,-226.248 369.441,-225.408 370.125,-224.592 370.919,-223.801 371.82,-223.039 372.828,-222.306 373.941,-221.605 375.155,-220.939 376.468,-220.308 377.875,-219.715 379.372,-219.161 380.955,-218.647 382.616,-218.176 384.351,-217.748 386.154,-217.364 388.016,-217.027 389.932,-216.735 391.893,-216.491 393.892,-216.295 395.92,-216.148 397.969,-216.049 400.031,-216 402.097,-216 404.159,-216.049"/>
<text text-anchor="middle" x="401.064" y="-230.3" font-family="Times New Roman,serif" font-size="14.00">Event</text>
</g>
<!-- Event&#45;&gt;UI Update -->
<g id="edge7" class="edge"><title>Event&#45;&gt;UI Update</title>
<path fill="none" stroke="red" d="M387.222,-217.116C379.456,-208.204 369.611,-196.906 360.927,-186.942"/>
<polygon fill="red" stroke="red" points="363.483,-184.547 354.274,-179.307 358.205,-189.146 363.483,-184.547"/>
</g>
<!-- UI Layout -->
<g id="node9" class="node"><title>UI Layout</title>
<polygon fill="none" stroke="black" points="507.824,-216.049 510.975,-216.148 514.094,-216.295 517.168,-216.491 520.184,-216.735 523.13,-217.027 525.994,-217.364 528.766,-217.748 531.434,-218.176 533.99,-218.647 536.423,-219.161 538.726,-219.715 540.89,-220.308 542.909,-220.939 544.776,-221.605 546.487,-222.306 548.038,-223.039 549.424,-223.801 550.644,-224.592 551.697,-225.408 552.58,-226.248 553.295,-227.109 553.843,-227.989 554.225,-228.886 554.444,-229.797 554.503,-230.719 554.406,-231.65 554.157,-232.587 553.761,-233.529 553.225,-234.471 552.553,-235.413 551.752,-236.35 550.828,-237.281 549.789,-238.203 548.641,-239.114 547.39,-240.011 546.045,-240.891 544.612,-241.752 543.097,-242.592 541.508,-243.408 539.852,-244.199 538.134,-244.961 536.36,-245.694 534.537,-246.395 532.669,-247.061 530.763,-247.692 528.822,-248.285 526.851,-248.839 524.854,-249.353 522.835,-249.824 520.797,-250.252 518.744,-250.636 516.677,-250.973 514.599,-251.265 512.513,-251.509 510.42,-251.705 508.322,-251.852 506.22,-251.951 504.116,-252 502.012,-252 499.908,-251.951 497.806,-251.852 495.708,-251.705 493.615,-251.509 491.529,-251.265 489.451,-250.973 487.384,-250.636 485.331,-250.252 483.293,-249.824 481.274,-249.353 479.277,-248.839 477.306,-248.285 475.365,-247.692 473.459,-247.061 471.591,-246.395 469.768,-245.694 467.994,-244.961 466.276,-244.199 464.619,-243.408 463.031,-242.592 461.516,-241.752 460.083,-240.891 458.738,-240.011 457.487,-239.114 456.339,-238.203 455.3,-237.281 454.376,-236.35 453.575,-235.413 452.903,-234.471 452.367,-233.529 451.971,-232.587 451.722,-231.65 451.625,-230.719 451.684,-229.797 451.903,-228.886 452.285,-227.989 452.833,-227.109 453.548,-226.248 454.431,-225.408 455.484,-224.592 456.704,-223.801 458.09,-223.039 459.641,-222.306 461.352,-221.605 463.219,-220.939 465.238,-220.308 467.402,-219.715 469.705,-219.161 472.138,-218.647 474.693,-218.176 477.362,-217.748 480.134,-217.364 482.998,-217.027 485.944,-216.735 488.96,-216.491 492.034,-216.295 495.152,-216.148 498.304,-216.049 501.475,-216 504.653,-216 507.824,-216.049"/>
<text text-anchor="middle" x="503.064" y="-230.3" font-family="Times New Roman,serif" font-size="14.00">UI Layout</text>
</g>
<!-- UI Layout&#45;&gt;UI Update -->
<g id="edge10" class="edge"><title>UI Layout&#45;&gt;UI Update</title>
<path fill="none" stroke="blue" d="M470.078,-218.834C443.533,-207.435 406.192,-191.398 378.334,-179.435"/>
<polygon fill="blue" stroke="blue" points="379.479,-176.117 368.909,-175.387 376.716,-182.549 379.479,-176.117"/>
</g>
</g>
</svg>
